<svg width="200" height="60" viewBox="0 0 200 60" fill="none" xmlns="http://www.w3.org/2000/svg">
  <rect width="200" height="60" rx="4" fill="#FFFFFF"/>
  <path d="M30 15H40V45H30V15Z" fill="#1E3A8A"/>
  <path d="M45 15H55L65 30L55 45H45L55 30L45 15Z" fill="#1E3A8A"/>
  <path d="M70 15H80V45H70V15Z" fill="#1E3A8A"/>
  <path d="M90 15H120V25H100V30H115V40H100V45H90V15Z" fill="#1E3A8A"/>
  <path d="M125 15H145C150 15 155 20 155 25C155 30 150 35 145 35H135V45H125V15ZM135 25H140C142 25 145 24 145 22C145 20 142 19 140 19H135V25Z" fill="#1E3A8A"/>
  <path d="M160 15H170V45H160V15Z" fill="#F97316"/>
</svg>
